<?xml version="1.0" encoding="UTF-8"?>
<!DOCTYPE svg PUBLIC "-//W3C//DTD SVG 1.1//EN" "http://www.w3.org/Graphics/SVG/1.1/DTD/svg11.dtd">
<!-- Creator: CorelDRAW (OEM Version) -->
<svg xmlns="http://www.w3.org/2000/svg" xml:space="preserve" width="2.83302in" height="2.45179in" version="1.1" style="shape-rendering:geometricPrecision; text-rendering:geometricPrecision; image-rendering:optimizeQuality; fill-rule:evenodd; clip-rule:evenodd"
viewBox="0 0 793.48 686.71"
 xmlns:xlink="http://www.w3.org/1999/xlink"
 xmlns:xodm="http://www.corel.com/coreldraw/odm/2003">
 <defs>
  <style type="text/css">
   <![CDATA[
    .str1 {stroke:#4161ED;stroke-width:1.95;stroke-miterlimit:2.61313}
    .str2 {stroke:#4262ED;stroke-width:1.95;stroke-miterlimit:2.61313}
    .str0 {stroke:#2B2A29;stroke-width:0.84;stroke-miterlimit:2.61313}
    .fil1 {fill:none}
    .fil3 {fill:#3F98A5}
    .fil4 {fill:#1A829C}
    .fil0 {fill:#4161ED}
    .fil2 {fill:#4262ED}
    .fil5 {fill:url(#id4)}
   ]]>
  </style>
   <clipPath id="id0">
    <path d="M380.89 489.28c-150.97,135.59 -346.49,150.88 -380.89,-61.86 98.59,345.41 491.1,-163.68 599.2,-282.21l-61.35 -47.04 255.63 -98.16 -59.3 259.72 -47.04 -57.26c-102.46,107.82 -204.46,200.81 -306.24,286.82z"/>
   </clipPath>
   <clipPath id="id1">
    <path d="M380.89 489.28c-150.97,135.59 -346.49,150.88 -380.89,-61.86 98.59,345.41 491.1,-163.68 599.2,-282.21l-61.35 -47.04 255.63 -98.16 -59.3 259.72 -47.04 -57.26c-102.46,107.82 -204.46,200.81 -306.24,286.82z"/>
   </clipPath>
   <clipPath id="id2">
    <path d="M251.29 206.05c-62.96,-15.94 -101.16,1.96 -123.21,41.92 54.88,-11.35 104.98,0.27 152.36,25.05 29.79,-142.57 205.44,-117.67 201.63,-27.06l42.24 -46.57c-66.97,-104.65 -214.45,-103.95 -273.01,6.65z"/>
   </clipPath>
   <clipPath id="id3">
    <path d="M401.36 540.54c-104.66,91.59 -214.37,136.77 -329.25,145.2 111.97,-24.42 214.22,-80.22 305.73,-170.76l23.52 25.56z"/>
   </clipPath>
  <radialGradient id="id4" gradientUnits="userSpaceOnUse" gradientTransform="matrix(-1.19446 0.59758 -0.406322 -0.812164 843 956)" cx="270.02" cy="616.79" r="61.86" fx="270.02" fy="616.79">
   <stop offset="0" style="stop-opacity:1; stop-color:#2C3167"/>
   <stop offset="1" style="stop-opacity:1; stop-color:#1A829C"/>
  </radialGradient>
 </defs>
 <g id="Layer_x0020_1">
  <metadata id="CorelCorpID_0Corel-Layer"/>
  <path class="fil0" d="M380.89 489.28c-150.97,135.59 -346.49,150.88 -380.89,-61.86 98.59,345.41 491.1,-163.68 599.2,-282.21l-61.35 -47.04 255.63 -98.16 -59.3 259.72 -47.04 -57.26c-102.46,107.82 -204.46,200.81 -306.24,286.82z"/>
  <g style="clip-path:url(#id0)">
  </g>
  <path id="_1" class="fil1" d="M380.89 489.28c-150.97,135.59 -346.49,150.88 -380.89,-61.86 98.59,345.41 491.1,-163.68 599.2,-282.21l-61.35 -47.04 255.63 -98.16 -59.3 259.72 -47.04 -57.26c-102.46,107.82 -204.46,200.81 -306.24,286.82z"/>
  <g style="clip-path:url(#id1)">
   <path id="_2" class="fil1 str0" d="M-0 0l793.48 589.56m0 -589.56l-793.48 589.56"/>
  </g>
  <path class="fil2" d="M380.89 489.28c-150.97,135.59 -346.49,150.88 -380.89,-61.86 98.59,345.41 491.1,-163.68 599.2,-282.21l-61.35 -47.04 255.63 -98.16 -59.3 259.72 -47.04 -57.26c-102.46,107.82 -204.46,200.81 -306.24,286.82z"/>
  <path class="fil0" d="M380.89 489.28c-150.97,135.59 -346.49,150.88 -380.89,-61.86 120.48,420.01 520.83,-154.23 793.48,-427.41l-59.3 259.72 -47.04 -57.26c-102.46,107.82 -204.46,200.81 -306.24,286.82z"/>
  <path class="fil0" d="M326.04 413.85c-30.41,-45.16 -61.55,-70.5 -98.79,-85.18 -12.55,-6.09 -25.75,-9.72 -40.44,-10.58 -74.22,-9.68 -136.76,36.22 -125.82,117.37 7.91,58.64 52.05,85.72 113.42,80.21 -94.65,23.51 -184.25,-52.01 -152.43,-147.55 63.94,-191.94 282.72,-87.89 336.41,10.22l-32.36 35.51z"/>
  <path class="fil0" d="M251.29 206.05c-62.96,-15.94 -101.16,1.96 -123.21,41.92 54.88,-11.35 104.98,0.27 152.36,25.05 29.79,-142.57 205.44,-117.67 201.63,-27.06l42.24 -46.57c-66.97,-104.65 -214.45,-103.95 -273.01,6.65z"/>
  <g style="clip-path:url(#id2)">
   <g id="_2297052030976">
    <path id="_1_7" class="fil3" d="M280.9 275.97c-34.48,-15.8 -69.05,-25.89 -103.74,-27.39 23.78,-12.65 51.15,-16.14 87.12,2.36 20.11,-107.89 171.86,-146.08 254.92,-45.45l-41.16 48.35c15.05,-89.76 -161.3,-120.87 -197.14,22.13z"/>
    <path class="fil4" d="M287.71 288.62c-34.48,-15.8 -69.05,-25.89 -103.74,-27.39 23.78,-12.65 51.15,-16.14 87.12,2.36 20.11,-107.89 171.86,-146.08 254.92,-45.45l-49.43 48.83c15.05,-89.76 -153.03,-121.36 -188.87,21.64z"/>
   </g>
  </g>
  <path class="fil1" d="M251.29 206.05c-62.96,-15.94 -101.16,1.96 -123.21,41.92 54.88,-11.35 104.98,0.27 152.36,25.05 29.79,-142.57 205.44,-117.67 201.63,-27.06l42.24 -46.57c-66.97,-104.65 -214.45,-103.95 -273.01,6.65z"/>
  <path class="fil0" d="M401.36 540.54c-104.66,91.59 -214.37,136.77 -329.25,145.2 111.97,-24.42 214.22,-80.22 305.73,-170.76l23.52 25.56z"/>
  <g style="clip-path:url(#id3)">
   <g id="_2297052031168">
    <path id="_1_8" class="fil5" d="M436.07 527.69c-102.37,94.14 -210.94,142.01 -325.58,153.26 111.33,-27.16 212.18,-85.47 301.44,-178.23l24.14 24.98z"/>
   </g>
  </g>
  <path class="fil1" d="M401.36 540.54c-104.66,91.59 -214.37,136.77 -329.25,145.2 111.97,-24.42 214.22,-80.22 305.73,-170.76l23.52 25.56z"/>
  <path class="fil2" d="M393.69 501.42l43.71 -36.81c53.81,64.85 123.26,98.59 194.03,57.26 91.77,-53.6 33.66,-206.81 -62.37,-177.92l61.86 -60.84c253.05,96.61 17.6,486 -237.23,218.31z"/>
  <path class="fil0 str1" d="M61 435.46c-10.94,-81.15 51.6,-127.05 125.82,-117.37 14.68,0.86 27.88,4.48 40.44,10.58 37.24,14.68 68.38,40.03 98.79,85.18l32.36 -35.51c-53.69,-98.12 -272.47,-202.17 -336.41,-10.22 -31.83,95.54 57.78,171.06 152.43,147.55 -61.37,5.51 -105.51,-21.57 -113.42,-80.21z"/>
  <path class="fil2 str1" d="M128.08 249.73c55.64,-11.51 106.45,0.28 154.49,25.4 30.21,-144.56 208.31,-119.32 204.45,-27.43l42.83 -47.22c-67.91,-106.12 -217.45,-105.4 -276.83,6.74 -63.84,-16.16 -102.57,1.99 -124.94,42.51z"/>
  <path class="fil2 str2" d="M401.36 540.54l-23.52 -25.56c-91.51,90.54 -193.77,146.34 -305.73,170.76 114.89,-8.43 224.59,-53.61 329.25,-145.2z"/>
  <path class="fil2 str2" d="M275.43 270.11l12.66 8.65c29.52,-124.31 197.24,-112.57 177.52,-9.36l23.05 -25.02 0.06 -0.06 1.36 -1.47c-11.83,-112.09 -185.09,-107.43 -214.64,27.26z"/>
  <path class="fil2" d="M418.11 481.24l34.25 -28.84c42.16,50.81 96.58,77.25 152.03,44.87 71.9,-42 26.38,-162.05 -48.87,-139.41l48.47 -47.67c198.28,75.7 13.79,380.8 -185.88,171.05z"/>
  <path class="fil0 str1" d="M72.7 446.43c-9.92,-70.36 46.76,-110.15 114.03,-101.76 13.31,0.74 25.27,3.89 36.64,9.17 33.75,12.73 61.97,34.7 89.53,73.85l29.33 -30.79c-48.65,-85.07 -246.93,-175.28 -304.87,-8.86 -28.84,82.84 52.36,148.31 138.14,127.93 -55.61,4.78 -95.62,-18.7 -102.79,-69.54z"/>
 </g>
</svg>
