<?xml version="1.0" encoding="UTF-8"?>
<!DOCTYPE svg PUBLIC "-//W3C//DTD SVG 1.1//EN" "http://www.w3.org/Graphics/SVG/1.1/DTD/svg11.dtd">
<!-- Creator: CorelDRAW 2019 (64-Bit) -->
<svg xmlns="http://www.w3.org/2000/svg" xml:space="preserve" width="91.4398mm" height="91.4398mm" version="1.1" style="shape-rendering:geometricPrecision; text-rendering:geometricPrecision; image-rendering:optimizeQuality; fill-rule:evenodd; clip-rule:evenodd"
viewBox="0 0 9143.98 9143.98"
 xmlns:xlink="http://www.w3.org/1999/xlink">
 <defs>
  <style type="text/css">
   <![CDATA[
    .str0 {stroke:#2B2A29;stroke-width:7.62;stroke-miterlimit:22.9256}
    .fil0 {fill:none}
    .fil2 {fill:none;fill-rule:nonzero}
    .fil3 {fill:#E9C789}
    .fil4 {fill:#E9C589}
    .fil5 {fill:#E8C487}
    .fil6 {fill:#E6C386}
    .fil7 {fill:#E6C286}
    .fil8 {fill:#E6C284}
    .fil9 {fill:#E4C184}
    .fil10 {fill:#E2BD82}
    .fil11 {fill:#E2BD81}
    .fil12 {fill:#E2BC80}
    .fil13 {fill:#E0BB7F}
    .fil14 {fill:#DEB87F}
    .fil15 {fill:#DEB87D}
    .fil16 {fill:#DCB67C}
    .fil17 {fill:#DCB57B}
    .fil18 {fill:#DAB57B}
    .fil19 {fill:#DAB57A}
    .fil20 {fill:#D9B479}
    .fil21 {fill:#D9B279}
    .fil22 {fill:#D7B078}
    .fil23 {fill:#D7B075}
    .fil24 {fill:#D7AE75}
    .fil25 {fill:#D3AC74}
    .fil26 {fill:#D3AB74}
    .fil27 {fill:#D3AB72}
    .fil28 {fill:#D1AA72}
    .fil29 {fill:#D1AA6F}
    .fil30 {fill:#D1A86F}
    .fil31 {fill:#D0A76F}
    .fil32 {fill:#D0A66E}
    .fil33 {fill:#CEA46D}
    .fil34 {fill:#CEA46B}
    .fil35 {fill:#CCA36B}
    .fil36 {fill:#CCA16A}
    .fil37 {fill:#CAA169}
    .fil38 {fill:#CA9F68}
    .fil41 {fill:#3C98A5}
    .fil42 {fill:#18829C}
    .fil40 {fill:url(#id0)}
    .fil43 {fill:url(#id1)}
    .fil45 {fill:url(#id2)}
    .fil39 {fill:url(#id3)}
    .fil49 {fill:url(#id4)}
    .fil47 {fill:url(#id5)}
    .fil46 {fill:url(#id6)}
    .fil1 {fill:url(#id7)}
    .fil44 {fill:url(#id8)}
    .fil48 {fill:url(#id9)}
   ]]>
  </style>
  <linearGradient id="id0" gradientUnits="userSpaceOnUse" x1="1684.5" y1="3133.86" x2="5942.96" y2="3133.86">
   <stop offset="0" style="stop-opacity:1; stop-color:#1F4280"/>
   <stop offset="1" style="stop-opacity:1; stop-color:#303C8A"/>
  </linearGradient>
  <linearGradient id="id1" gradientUnits="userSpaceOnUse" x1="3168.03" y1="6973.35" x2="2446" y2="8235.22">
   <stop offset="0" style="stop-opacity:1; stop-color:#18829C"/>
   <stop offset="1" style="stop-opacity:1; stop-color:#2C3167"/>
  </linearGradient>
  <linearGradient id="id2" gradientUnits="userSpaceOnUse" xlink:href="#id1" x1="6481.64" y1="5102.92" x2="5150.15" y2="5508.24">
  </linearGradient>
  <linearGradient id="id3" gradientUnits="userSpaceOnUse" xlink:href="#id1" x1="3204.14" y1="5272.17" x2="1595.38" y2="5966.57">
  </linearGradient>
  <linearGradient id="id4" gradientUnits="userSpaceOnUse" x1="6023.29" y1="4689.93" x2="6617.07" y2="6225.62">
   <stop offset="0" style="stop-opacity:1; stop-color:#F2D091"/>
   <stop offset="1" style="stop-opacity:1; stop-color:#A47245"/>
  </linearGradient>
  <linearGradient id="id5" gradientUnits="userSpaceOnUse" xlink:href="#id4" x1="2486.27" y1="4215.13" x2="1962.82" y2="5810.65">
  </linearGradient>
  <radialGradient id="id6" gradientUnits="userSpaceOnUse" gradientTransform="matrix(-0.820553 0.274986 -1.43302 -0.296339 11637 5955)" cx="2379.05" cy="5098.28" r="908.31" fx="2379.05" fy="5098.28">
   <stop offset="0" style="stop-opacity:1; stop-color:#A47245"/>
   <stop offset="1" style="stop-opacity:1; stop-color:#F2D091"/>
  </radialGradient>
  <radialGradient id="id7" gradientUnits="userSpaceOnUse" gradientTransform="matrix(-1.06977 0.597673 -1.86825 -0.644083 10597 122)" xlink:href="#id6" cx="3804.5" cy="1457.39" r="3238.14" fx="3804.5" fy="1457.39">
  </radialGradient>
  <radialGradient id="id8" gradientUnits="userSpaceOnUse" gradientTransform="matrix(-1.15467 0.577678 -0.39279 -0.785117 9876 11544)" cx="3214.93" cy="7507.21" r="580.32" fx="3214.93" fy="7507.21">
   <stop offset="0" style="stop-opacity:1; stop-color:#2C3167"/>
   <stop offset="1" style="stop-opacity:1; stop-color:#18829C"/>
  </radialGradient>
  <radialGradient id="id9" gradientUnits="userSpaceOnUse" gradientTransform="matrix(0.821285 0.290666 1.43429 -0.313237 -6559 5207)" xlink:href="#id6" cx="6289.26" cy="5356.89" r="908.31" fx="6289.26" fy="5356.89">
  </radialGradient>
 </defs>
 <g id="Layer_x0020_1">
  <metadata id="CorelCorpID_0Corel-Layer"/>
  <rect class="fil0" x="-0.02" y="-0.01" width="9143.99" height="9143.99"/>
  <rect class="fil0" x="-3556.02" y="1523.99" width="16255.99" height="6095.99"/>
  <g id="_2259715615152">
   <path class="fil1" d="M4401.69 6145.47c-1622.53,1457.24 -3723.76,1621.54 -4093.53,-664.86 1059.56,3712.15 5277.96,-1759.06 6439.72,-3033.01l-659.36 -505.5 2747.3 -1054.96 -637.36 2791.25 -505.51 -615.39c-1101.2,1158.76 -2197.38,2158.17 -3291.26,3082.47l0 0z"/>
   <path class="fil2 str0" d="M5022.34 4389.8l747.63 555.48m3065.85 -4058.14l-2093.98 1555.83m-5651.36 4198.99l-187.33 139.19"/>
   <path class="fil1" d="M4401.69 6145.47c-1622.53,1457.24 -3723.76,1621.54 -4093.53,-664.86 1059.56,3712.15 5277.96,-1759.06 6439.72,-3033.01l-659.36 -505.5 2747.3 -1054.96 -637.36 2791.25 -505.51 -615.39c-1101.2,1158.76 -2197.38,2158.17 -3291.26,3082.47l0 0z"/>
   <path class="fil3" d="M8824.03 938.76l-45.07 5.9c18.93,-19.11 38.04,-38.67 56.86,-57.52l-11.79 51.62z"/>
   <path class="fil4" d="M8802.52 920.82l26.43 -3.56 -24.13 105.66 -116.23 13.31c38.23,-39.07 76.14,-77.36 113.93,-115.41z"/>
   <path class="fil5" d="M8710.51 1013.89l99.05 -11.73 -23.32 102.12 -181.11 17.85c35.27,-36.38 70.47,-72.66 105.38,-108.24z"/>
   <path class="fil5" d="M8625.54 1101.13l165.28 -16.94 -22.57 98.87 -241.31 20.03c33.04,-34.38 65.86,-68.25 98.6,-101.96z"/>
   <path class="fil5" d="M8545.89 1183.29l226.8 -19.7 -21.89 95.89 -297.08 20.14c30.81,-32.3 61.61,-64.58 92.17,-96.33z"/>
   <path class="fil5" d="M8471.65 1260.88l283.47 -20.29 -21.27 93.13 -349.2 18.49c29.13,-30.73 58.08,-61.07 87,-91.33z"/>
   <path class="fil5" d="M8401.45 1334.42l336.59 -19.07 -20.69 90.63 -397.89 15.27c27.39,-29.06 54.78,-58.16 81.99,-86.83z"/>
   <path class="fil6" d="M8335.47 1404.31l385.97 -16.22 -20.17 88.3 -443.83 10.71c26.15,-27.88 52.05,-55.26 78.03,-82.79z"/>
   <path class="fil7" d="M8272.55 1470.92l432.7 -11.96 -19.67 86.18 -486.92 4.91c24.64,-26.39 49.4,-53.03 73.89,-79.13z"/>
   <path class="fil7" d="M8213.12 1534.56l476.34 -6.45 -19.23 84.24 -527.88 -1.98c23.69,-25.48 47.2,-50.59 70.77,-75.81z"/>
   <path class="fil7" d="M8156.21 1595.52l517.82 0.17 -18.83 82.44 -566.58 -9.82c22.58,-24.37 45.12,-48.65 67.59,-72.79z"/>
   <path class="fil7" d="M8101.82 1654.04l557.12 7.77 -18.47 80.81 -603.42 -18.56c21.61,-23.39 43.26,-46.83 64.77,-70.02z"/>
   <path class="fil7" d="M8049.77 1710.32l594.36 16.29 -18.11 79.34 -638.68 -28.11c20.89,-22.68 41.62,-45.01 62.43,-67.52z"/>
   <polygon class="fil7" points="7999.61,1764.57 8629.61,1790.22 8611.81,1868.19 7939.6,1829.81 "/>
   <polygon class="fil8" points="7951.37,1816.98 8615.34,1852.73 8597.81,1929.47 7893.47,1880.1 "/>
   <path class="fil9" d="M7904.87 1867.68l696.42 46.57 -17.26 75.63 -735.3 -61c18.77,-20.52 37.43,-40.79 56.14,-61.2z"/>
   <polygon class="fil9" points="7859.79,1916.83 8587.45,1974.85 8570.41,2049.49 7805.44,1976.26 "/>
   <polygon class="fil9" points="7816.12,1964.54 8573.8,2034.65 8556.96,2108.4 7763.43,2022.37 "/>
   <polygon class="fil10" points="7773.82,2010.96 8560.3,2093.74 8543.64,2166.7 7722.5,2067.3 "/>
   <polygon class="fil10" points="7732.63,2056.17 8546.96,2152.17 8530.46,2224.45 7682.55,2111.15 "/>
   <polygon class="fil10" points="7692.44,2100.28 8533.74,2210.07 8517.38,2281.75 7643.67,2154.02 "/>
   <polygon class="fil10" points="7653.31,2143.39 8520.64,2267.47 8504.38,2338.65 7605.63,2196 "/>
   <polygon class="fil10" points="7615.06,2185.59 8507.63,2324.46 8491.46,2395.23 7568.33,2237.15 "/>
   <polygon class="fil11" points="7577.59,2226.93 8494.68,2381.12 8478.59,2451.57 7531.72,2277.53 "/>
   <polygon class="fil11" points="7540.81,2267.51 8481.8,2437.51 8465.77,2507.73 7495.85,2317.26 "/>
   <polygon class="fil11" points="7504.76,2307.38 8468.98,2493.72 8452.97,2563.79 7460.55,2356.35 "/>
   <polygon class="fil11" points="7469.32,2346.63 8456.17,2549.78 8440.18,2619.8 7425.74,2394.9 "/>
   <polygon class="fil11" points="7434.4,2385.32 8443.38,2605.79 8427.4,2675.83 7391.41,2432.93 "/>
   <polygon class="fil12" points="7399.95,2423.46 8430.6,2661.81 8414.57,2731.95 7357.52,2470.53 "/>
   <polygon class="fil13" points="7365.94,2461.17 8417.78,2717.91 8401.73,2788.24 7324,2507.73 "/>
   <polygon class="fil13" points="7332.35,2498.47 8404.94,2774.15 8388.82,2844.76 7290.8,2544.6 "/>
   <polygon class="fil13" points="7299.08,2535.42 8392.04,2830.6 8375.84,2901.57 7257.86,2581.17 "/>
   <polygon class="fil13" points="7266.08,2572.05 8379.09,2887.34 8362.78,2958.75 7225.15,2617.48 "/>
   <polygon class="fil13" points="7233.32,2608.43 8366.06,2944.42 8349.63,3016.38 7192.67,2653.61 "/>
   <polygon class="fil14" points="7200.78,2644.6 8352.93,3001.94 8336.35,3074.55 7160.32,2689.57 "/>
   <polygon class="fil15" points="7168.39,2680.6 8339.68,3059.95 8322.93,3133.29 7128.07,2725.43 "/>
   <polygon class="fil15" points="7136.12,2716.47 8326.3,3118.55 8309.36,3192.72 7095.89,2761.21 "/>
   <polygon class="fil16" points="7103.92,2752.28 8312.77,3177.79 8295.61,3252.91 7063.72,2796.97 "/>
   <polygon class="fil16" points="7071.77,2788.03 8299.07,3237.79 8281.68,3313.96 7722.19,3098.59 7692.95,3063 7676,3080.82 7031.55,2832.74 "/>
   <path class="fil16" d="M7039.6 2823.8l646.47 246.43 -50.41 52.93 -636.33 -254.59 40.27 -44.77zm665.13 253.54l580.46 221.27 -17.66 77.35 -472.93 -189.21 -89.87 -109.41z"/>
   <path class="fil16" d="M7007.4 2859.61l638.36 252.95 -50.63 52.98 -628.12 -261.03 40.39 -44.9zm768.69 304.6l494.99 196.15 -17.95 78.63 -381.6 -158.58 -95.44 -116.2z"/>
   <path class="fil16" d="M6975.1 2895.52l630.17 259.41 -50.91 53.08 -619.8 -267.41 40.54 -45.08zm876.75 360.92l404.91 166.69 -18.29 80.05 -284.93 -122.93 -101.69 -123.81z"/>
   <path class="fil16" d="M6942.69 2931.55l621.88 265.83 -51.23 53.25 -611.4 -273.77 40.75 -45.31zm989.85 423.11l309.63 132.37 -18.64 81.6 -182.28 -81.63 -108.71 -132.34z"/>
   <path class="fil16" d="M6910.11 2967.77l613.51 272.19 -51.62 53.48 -602.93 -280.08 41.04 -45.59zm1108.63 491.86l208.55 92.52 -19.03 83.31 -72.89 -33.86 -116.63 -141.97z"/>
   <path class="fil17" d="M6877.31 3004.21l605.07 278.51 -52.08 53.78 -594.35 -286.35 41.36 -45.94zm1233.88 567.95l100.92 46.46 -13.65 59.78 -87.27 -106.24z"/>
   <polygon class="fil17" points="6844.26,3040.91 7440.76,3325.7 7388.17,3379.84 6802.54,3087.25 "/>
   <polygon class="fil18" points="6810.92,3077.95 7398.75,3368.97 7345.56,3423.52 6768.78,3124.75 "/>
   <path class="fil19" d="M6777.27 3115.34l578.98 297.22c-17.94,18.38 -35.89,36.74 -53.83,55.04l-567.82 -304.94 42.67 -47.32z"/>
   <polygon class="fil20" points="6743.18,3153.14 7313.25,3456.53 7258.69,3512.14 6699.96,3201.04 "/>
   <polygon class="fil20" points="6708.66,3191.4 7269.69,3500.96 7214.31,3557.18 6664.84,3239.97 "/>
   <polygon class="fil20" points="6673.67,3230.18 7225.47,3545.88 7169.21,3602.81 6629.17,3279.49 "/>
   <polygon class="fil21" points="6638.14,3269.55 7180.56,3591.35 7123.32,3649.06 6592.87,3319.68 "/>
   <polygon class="fil21" points="6602.02,3309.57 7134.86,3637.42 7076.57,3696 6555.86,3360.55 "/>
   <polygon class="fil21" points="6565.17,3350.26 7088.33,3684.2 7028.88,3743.73 6518.12,3402.22 "/>
   <path class="fil21" d="M6527.63 3391.72l513.26 340c-20.24,20.23 -40.47,40.44 -60.71,60.57l-500.58 -347.52 48.03 -53.05z"/>
   <polygon class="fil22" points="6489.3,3434.04 6992.44,3780.06 6930.35,3841.77 6440.18,3488.25 "/>
   <path class="fil23" d="M6450.15 3477.3l492.77 352c-21.19,21.04 -42.39,42.02 -63.58,62.95l-479.59 -359.55c16.79,-18.48 33.62,-36.9 50.4,-55.4z"/>
   <path class="fil23" d="M6409.95 3521.49l482.26 358.03c-21.74,21.49 -43.46,42.93 -65.19,64.31l-468.75 -365.55 51.68 -56.79z"/>
   <path class="fil23" d="M6368.74 3566.77l471.48 364.06c-22.32,21.97 -44.63,43.9 -66.94,65.76l-457.59 -371.49 53.05 -58.33z"/>
   <path class="fil23" d="M6326.44 3613.27l460.41 370.01c-22.94,22.5 -45.9,44.96 -68.84,67.35l-446.2 -377.44 54.63 -59.92z"/>
   <path class="fil23" d="M6282.92 3661.05l449.05 375.94c-23.63,23.08 -47.25,46.12 -70.88,69.09l-434.56 -383.41c18.8,-20.55 37.61,-41.03 56.39,-61.62z"/>
   <path class="fil24" d="M6237.98 3710.15l437.5 381.92c-24.38,23.71 -48.76,47.37 -73.12,70.94l-422.54 -389.29 58.16 -63.57z"/>
   <path class="fil24" d="M6191.63 3760.8l425.59 387.82c-25.18,24.39 -50.34,48.72 -75.52,72.97l-410.18 -395.11c20.06,-21.84 40.07,-43.79 60.11,-65.68z"/>
   <path class="fil24" d="M6143.75 3813.14l413.3 393.66c-26.06,25.12 -52.1,50.15 -78.15,75.13l-397.58 -401c20.81,-22.6 41.63,-45.14 62.43,-67.79z"/>
   <path class="fil24" d="M6094.03 3867.14l400.77 399.54c-26.99,25.92 -53.98,51.76 -80.97,77.53l-384.56 -406.78 64.76 -70.29z"/>
   <path class="fil24" d="M6042.46 3923.1l387.85 405.34c-28.03,26.79 -56.05,53.5 -84.07,80.12l-371.1 -412.45c22.45,-24.26 44.88,-48.68 67.32,-73.01z"/>
   <path class="fil25" d="M5988.89 3981.23l374.49 411.03c-29.14,27.72 -58.29,55.34 -87.43,82.9l-357.36 -418.19c23.44,-25.25 46.87,-50.41 70.3,-75.74z"/>
   <path class="fil26" d="M5932.94 4041.51l360.85 416.78c-30.36,28.74 -60.73,57.39 -91.08,85.93l-343.12 -423.77c24.46,-26.25 48.9,-52.57 73.35,-78.94z"/>
   <path class="fil27" d="M5874.58 4104.32l346.73 422.39c-31.69,29.84 -63.37,59.58 -95.06,89.22l-328.45 -429.23c25.58,-27.38 51.18,-54.87 76.78,-82.38z"/>
   <path class="fil27" d="M5813.55 4169.9l332.14 427.85c-33.14,31.04 -66.26,61.98 -99.39,92.81l-313.4 -434.71c26.88,-28.64 53.76,-57.16 80.65,-85.95z"/>
   <path class="fil27" d="M5749.41 4238.25l317.21 433.36c-34.72,32.35 -69.45,64.58 -104.16,96.7l-297.71 -439.85c28.21,-29.9 56.44,-60.12 84.66,-90.21z"/>
   <path class="fil27" d="M5682.11 4309.97l301.7 438.6c-36.46,33.77 -72.91,67.42 -109.36,100.94l-281.73 -445.11c29.79,-31.42 59.58,-62.8 89.39,-94.43z"/>
   <path class="fil27" d="M5611.08 4385.04l285.79 443.85c-38.36,35.33 -76.71,70.51 -115.06,105.58l-265.09 -449.99c31.44,-32.95 62.89,-66.22 94.36,-99.44z"/>
   <path class="fil27" d="M5536.11 4464.04l269.32 448.81c-40.45,37.04 -80.9,73.94 -121.33,110.68l-248.08 -454.93c33.34,-34.73 66.7,-69.5 100.09,-104.56z"/>
   <path class="fil28" d="M5456.65 4547.14l252.37 453.71c-42.74,38.9 -85.49,77.66 -128.24,116.23l-230.39 -459.38c35.39,-36.59 70.84,-73.6 106.26,-110.56z"/>
   <path class="fil28" d="M5372.29 4634.92l234.86 458.32c-45.29,40.94 -90.57,81.73 -135.86,122.32l-212.34 -463.99c37.76,-38.71 75.53,-77.49 113.34,-116.65z"/>
   <path class="fil29" d="M5282.36 4727.56l216.91 462.89c-48.11,43.21 -96.22,86.21 -144.33,129.03l-193.65 -468.18c40.32,-40.93 80.68,-82.25 121.07,-123.74z"/>
   <path class="fil30" d="M5186.4 4825.94l198.31 467.02c-51.24,45.68 -102.47,91.15 -153.7,136.41l-174.48 -472.25c43.24,-43.41 86.52,-87.06 129.87,-131.18z"/>
   <path class="fil31" d="M5083.39 4929.99l179.35 471.32c-54.71,48.43 -109.43,96.63 -164.13,144.59l-154.88 -476.44c46.49,-46.07 93.04,-92.52 139.66,-139.47z"/>
   <path class="fil31" d="M4972.72 5040.69l159.83 475.43c-58.6,51.48 -117.19,102.7 -175.78,153.65l-134.75 -480.57c50.15,-48.95 100.38,-98.46 150.7,-148.51z"/>
   <path class="fil31" d="M4853.39 5158.66l139.78 479.4c-62.95,54.86 -125.9,109.45 -188.83,163.72l-114.13 -484.92c54.27,-52.06 108.67,-104.75 163.18,-158.2z"/>
   <path class="fil31" d="M4724.24 5284.41l119.27 483.54c-67.83,58.64 -135.67,116.93 -203.49,174.93l-93.06 -489.97c58.93,-55.36 118.01,-111.38 177.28,-168.5z"/>
   <path class="fil31" d="M4583.93 5418.16l98.36 488.54c-73.35,62.86 -146.69,125.34 -220.02,187.49l-71.52 -496.45c64.17,-58.75 128.56,-118.55 193.18,-179.58z"/>
   <path class="fil31" d="M4431.1 5560.75l76.95 494.61c-35.46,30.11 -70.92,60.15 -106.36,90.11l0 0c-43.67,39.22 -87.76,77.33 -132.08,114.64l-49.65 -508.55c70.09,-62.18 140.44,-125.64 211.14,-190.81z"/>
   <path class="fil32" d="M4264.16 5712.56l55.22 505.28c-85.72,73.97 -172.7,144.18 -260.54,210.79l-26.03 -514.29c76.73,-65.47 153.79,-132.38 231.35,-201.78z"/>
   <path class="fil33" d="M4081.24 5873.01l32.08 513.8c-93.83,73.14 -188.76,141.97 -284.4,206.33l-1.51 -507.38c84.01,-68.24 168.67,-139.31 253.83,-212.75z"/>
   <path class="fil33" d="M3880.57 6041.96l7.64 510.61c-102.04,70.87 -204.95,136.61 -308.33,197.03l22.12 -486.67c92.05,-70.14 184.94,-143.88 278.57,-220.97z"/>
   <path class="fil33" d="M3660.29 6218.73l-16.39 492.76c-110.02,66.76 -220.63,127.53 -331.28,181.95l42.55 -449.57c100.61,-70.39 202.33,-145.42 305.12,-225.14z"/>
   <path class="fil34" d="M3418.95 6398.31l-37.9 460.78c-117.44,60.52 -235.01,113.9 -352.06,159.91l57.48 -397.24c109.23,-67.92 220.24,-143.04 332.48,-223.45z"/>
   <path class="fil34" d="M3155.77 6577.29l-54.48 412.31c-123.77,51.8 -247.09,95.61 -369.15,130.59l65.07 -332.42c117.37,-61.46 237.1,-132.4 358.56,-210.48z"/>
   <path class="fil34" d="M2871.44 6747.19l-64.1 350.45c-128.39,40.33 -255.56,71.1 -380.61,92.19l64.73 -261.04c123.87,-49.5 250.65,-110.43 379.98,-181.6z"/>
   <path class="fil34" d="M2569.14 6896.51l-65.56 279.2c-130.71,26.06 -259.3,41.57 -384.75,46.01l57.48 -190.8c127.37,-30.97 258.45,-76.18 392.83,-134.41z"/>
   <path class="fil35" d="M2255.27 7010.47l-59.62 207.16c-130.08,9.16 -257.07,6.89 -379.8,-7.68l47.09 -132.31c126.49,-6.05 257.34,-28.62 392.33,-67.17z"/>
   <path class="fil35" d="M1940.49 7071.7l-49.8 145.56c-126.02,-9.82 -247.89,-32.07 -364.48,-67.22l37.95 -92.14c120.52,23.05 246.2,26.89 376.33,13.8z"/>
   <path class="fil36" d="M1636.75 7069.44l-39.85 100.22c-118.4,-29.91 -231.64,-72.81 -338.77,-128.92l34.1 -72.66c109.79,52.46 224.71,86.07 344.52,101.36z"/>
   <path class="fil36" d="M1357.23 6996.74l-34.52 75.9c-107.44,-49.84 -209.06,-112.58 -303.87,-188.56l35.74 -67.63c96.03,77.89 196.99,137.78 302.65,180.29z"/>
   <path class="fil36" d="M1110.14 6860.25l-34.5 67.19c-93.88,-68.15 -181.58,-148.58 -262.13,-241.82l40.19 -68.19c81.14,96.69 166.61,177.71 256.44,242.82z"/>
   <path class="fil37" d="M900.57 6670.62l-39.08 68.1c-78.79,-83.52 -151.42,-178.25 -216.91,-284.94l43.79 -67.12c67.05,107.98 137.79,202.61 212.2,283.96z"/>
   <path class="fil37" d="M726.61 6446.42l-43.31 68.06c-63.41,-95.02 -120.59,-200.55 -171.34,-316.23l42.01 -58.58c54.57,112.94 112.04,215.53 172.64,306.75z"/>
   <path class="fil37" d="M584.22 6203.28l-42.29 60.35c-48.84,-102.34 -92.09,-213.56 -129.5,-333.62l32.33 -41.21c44.07,113.5 90.48,218.57 139.46,314.48z"/>
   <path class="fil38" d="M470.34 5950.95l-35.97 46.85c-35.87,-105.74 -66.8,-218.96 -92.66,-339.54l15.62 -18.28c35.79,110.35 73.43,214.11 113.01,310.97z"/>
   <path class="fil38" d="M377.24 5701.83l-20.26 24.23c-18.51,-78.59 -35.01,-160.1 -48.82,-245.45 22.1,77.05 45.25,150.33 69.08,221.22z"/>
   <path class="fil39" d="M3812.19 5334.83c-326.84,-485.29 -661.47,-757.72 -1061.69,-915.49 -134.88,-65.49 -276.78,-104.45 -434.58,-113.66 -797.67,-103.98 -1469.82,389.29 -1352.2,1261.43 84.98,630.18 559.44,921.25 1218.95,861.98 -1017.15,252.67 -1980.2,-558.95 -1638.13,-1585.76 687.15,-2062.85 3038.47,-944.62 3615.46,109.88l-347.81 381.62z"/>
   <path class="fil40" d="M3008.85 3101.58c-676.61,-171.28 -1087.17,21.06 -1324.21,450.54 589.77,-122 1128.27,2.95 1637.4,269.25 320.18,-1532.22 2207.86,-1264.64 2166.94,-290.78l453.98 -500.46c-719.75,-1124.72 -2304.69,-1117.18 -2934.11,71.45l0 0z"/>
   <path class="fil41" d="M2311.09 3512.14c232.5,-95.09 499.63,-101.73 837.32,71.97 215.91,-1158.58 1844.36,-1569.21 2737.43,-491.02l-396.86 437.5c40.92,-973.86 -1846.76,-1241.44 -2166.94,290.78 -323.27,-169.08 -658.39,-281.15 -1010.95,-309.23z"/>
   <path class="fil42" d="M2715.95 3581.71c150.73,0.6 317.18,41.34 505.62,138.27 208.27,-1117.53 1730.66,-1539 2639.76,-599.87l-372.35 410.48c40.92,-973.86 -1846.76,-1241.44 -2166.94,290.78 -197.19,-103.15 -398.81,-185.06 -606.09,-239.66z"/>
   <path class="fil43" d="M4621.64 6696.38c-1124.77,984.35 -2303.82,1469.9 -3538.52,1560.46 1203.32,-262.41 2302.28,-862.17 3285.77,-1835.19l252.75 274.73z"/>
   <path class="fil44" d="M1615.67 8192.33c-39.96,4.77 -79.98,9.15 -120.07,13.08 1091.81,-266.39 2089.81,-811.54 2984.97,-1662.37l141.07 153.34c-962,841.89 -1963.7,1318.85 -3005.97,1495.95z"/>
   <path class="fil45" d="M4539.23 6275.98l469.79 -395.6c578.31,696.92 1324.65,1059.6 2085.21,615.4 986.25,-576.02 361.79,-2222.66 -670.34,-1912.1l664.83 -653.86c2719.6,1038.26 189.19,5223.12 -2549.49,2346.16z"/>
   <path class="fil46" d="M3444.48 5316.02c-851.02,-1263.64 -2370.56,-957.2 -2221.32,149.39 118.4,877.91 1452.9,1045.88 2232.3,-111.42 -2725.09,2239.4 -2740.95,-2281.35 -10.98,-37.97l0 0z"/>
   <path class="fil47" d="M3445.83 5367.89l-2.79 -4.02c-2.44,1.99 -4.8,3.77 -7.24,5.76l5.68 4.53 4.35 -6.27zm-91.11 -123.32c-864.79,-1092.25 -2258.26,-767.43 -2115.06,294.49 1.66,12.29 3.63,24.38 5.76,36.38 196.29,725.7 1295.35,867.59 2047.86,-8.4 -1159.07,865.03 -1781.36,451.1 -1863.07,-49.55 -165.05,-597.1 474.41,-1410.94 1924.51,-272.92z"/>
   <path class="fil48" d="M5990.66 4940.31c4.09,-1.93 8.16,-3.93 12.26,-5.82 763.66,-352.78 1551.69,28.36 1442.22,839.88 -118.39,877.9 -1452.9,1045.88 -2232.3,-111.43 2665.66,2190.55 2738.5,-2086.2 185.26,-174.11 -6.08,4.54 -12.04,8.86 -18.13,13.47l610.69 -561.99z"/>
   <path class="fil49" d="M5906.6 5017.68c3.36,-1.6 6.72,-3.25 10.1,-4.8 763.65,-352.79 1551.67,28.35 1442.21,839.87 -23.84,176.83 -97.1,324.81 -205.14,439 -385.49,301.13 -1071.41,265.45 -1627.1,-256.71 746.47,481.56 1240.17,398.81 1480.25,135.53 631.32,-471.77 98.57,-1960.38 -1608.82,-681.74 -6.08,4.54 -12.04,8.86 -18.13,13.47l526.63 -484.62z"/>
   <path class="fil41" d="M5353.18 3662.6l0.5 -0.56 0 -0.01 12.04 -14.07c-104.87,-1070.66 -1640.63,-1026.11 -1902.53,260.4l112.2 82.6c261.67,-1187.36 1748.28,-1075.2 1573.5,-89.37l204.29 -238.99z"/>
   <path class="fil42" d="M5311.93 3710.86c-9.06,-636.1 -917.11,-891.02 -1520.27,-471.94 -151.86,164.1 -270.92,386.76 -328.47,669.44l112.2 82.6c261.67,-1187.36 1748.28,-1075.2 1573.5,-89.37l163.04 -190.73z"/>
   <path class="fil41" d="M5182.73 3862.01c46.96,-234.11 -55.68,-439.29 -179.98,-540.52 125.9,130.72 191.13,326.39 146.14,580.1l33.84 -39.58z"/>
  </g>
 </g>
</svg>
