<?xml version="1.0" encoding="UTF-8"?>
<svg id="Layer_1" xmlns="http://www.w3.org/2000/svg" version="1.1" viewBox="0 0 30 30">
  <!-- Generator: Adobe Illustrator 29.5.1, SVG Export Plug-In . SVG Version: 2.1.0 Build 141)  -->
  <defs>
    <style>
      .st0 {
        fill: #4262ed;
      }
    </style>
  </defs>
  <path class="st0" d="M15.4,2.5c-.2-.1-.5-.1-.8,0L.6,9c-.5.2-.7.8-.5,1.2.1.2.3.4.5.5l14,5.6c.2,0,.5,0,.7,0l10.8-4.3v10.9c-1,0-1.9.8-1.9,1.9v3.7h5.6v-3.7c0-1-.8-1.9-1.9-1.9v-11.7l1.3-.5c.5-.2.7-.7.5-1.2,0-.2-.3-.4-.5-.5L15.4,2.5Z"/>
  <path class="st0" d="M7.9,15.5c-.5-.2-1,0-1.2.5,0,0,0,0,0,0l-.9,3.2c-.1.5.1.9.5,1.1l8.4,3.4c.2,0,.5,0,.7,0l8.4-3.4c.4-.2.7-.7.5-1.1l-.9-3.2c-.1-.5-.7-.8-1.2-.6,0,0,0,0,0,0l-7.1,2.7-7.1-2.7Z"/>
</svg>